<svg width="141" height="141" viewBox="0 0 141 141" fill="none" xmlns="http://www.w3.org/2000/svg">
<circle cx="70.5" cy="70.5" r="70.5" fill="#253BAB"/>
<path d="M53.9766 37.4531C44.0625 37.4531 37.4531 47.3672 37.4531 57.2812C37.4531 64.2541 40.7578 73.8047 44.0625 77.1094C47.3672 80.4141 50.6719 103.547 57.2812 103.547C72.2845 103.547 63.8906 80.4141 70.5 80.4141C77.1094 80.4141 68.7155 103.547 83.7188 103.547C90.3281 103.547 93.6328 80.4141 96.9375 77.1094C100.242 73.8047 103.547 64.2541 103.547 57.2812C103.547 47.3672 96.9375 37.4531 87.0234 37.4531C77.1094 37.4531 77.1094 40.7578 70.5 40.7578C63.8906 40.7578 63.8906 37.4531 53.9766 37.4531Z" fill="#FAFAFA"/>
<path d="M109.072 56L115.374 49.73C115.992 49.1125 115.992 48.0833 115.374 47.4975L108.502 40.6258C107.917 40.0083 106.887 40.0083 106.27 40.6258L100 46.9275L93.6667 40.6258C93.3698 40.3313 92.9686 40.1661 92.5504 40.1661C92.1322 40.1661 91.731 40.3313 91.4342 40.6258L84.5625 47.4975C83.945 48.0833 83.945 49.1125 84.5625 49.73L90.8642 56L84.5625 62.3333C83.945 62.9508 83.945 63.9167 84.5625 64.5658L91.4342 71.4375C92.0833 72.055 93.0492 72.055 93.6667 71.4375L100 65.1358L106.27 71.4375C106.587 71.7542 106.982 71.8967 107.394 71.8967C107.806 71.8967 108.202 71.7383 108.518 71.4375L115.39 64.5658C116.007 63.9167 116.007 62.9508 115.39 62.3333L109.072 56ZM100 51.25C100.42 51.25 100.823 51.4168 101.12 51.7138C101.417 52.0107 101.583 52.4134 101.583 52.8333C101.583 53.2533 101.417 53.656 101.12 53.9529C100.823 54.2499 100.42 54.4167 100 54.4167C99.5801 54.4167 99.1773 54.2499 98.8804 53.9529C98.5835 53.656 98.4167 53.2533 98.4167 52.8333C98.4167 52.4134 98.5835 52.0107 98.8804 51.7138C99.1773 51.4168 99.5801 51.25 100 51.25ZM92.5425 54.3533L86.795 48.6217L92.5425 42.8742L98.2742 48.6058L92.5425 54.3533ZM96.8333 57.5833C96.4134 57.5833 96.0107 57.4165 95.7137 57.1196C95.4168 56.8227 95.25 56.4199 95.25 56C95.25 55.5801 95.4168 55.1774 95.7137 54.8804C96.0107 54.5835 96.4134 54.4167 96.8333 54.4167C97.2533 54.4167 97.656 54.5835 97.9529 54.8804C98.2498 55.1774 98.4167 55.5801 98.4167 56C98.4167 56.4199 98.2498 56.8227 97.9529 57.1196C97.656 57.4165 97.2533 57.5833 96.8333 57.5833ZM100 60.75C99.5801 60.75 99.1773 60.5832 98.8804 60.2863C98.5835 59.9893 98.4167 59.5866 98.4167 59.1667C98.4167 58.7468 98.5835 58.344 98.8804 58.0471C99.1773 57.7502 99.5801 57.5833 100 57.5833C100.42 57.5833 100.823 57.7502 101.12 58.0471C101.417 58.344 101.583 58.7468 101.583 59.1667C101.583 59.5866 101.417 59.9893 101.12 60.2863C100.823 60.5832 100.42 60.75 100 60.75ZM103.167 54.4167C103.587 54.4167 103.989 54.5835 104.286 54.8804C104.583 55.1774 104.75 55.5801 104.75 56C104.75 56.4199 104.583 56.8227 104.286 57.1196C103.989 57.4165 103.587 57.5833 103.167 57.5833C102.747 57.5833 102.344 57.4165 102.047 57.1196C101.75 56.8227 101.583 56.4199 101.583 56C101.583 55.5801 101.75 55.1774 102.047 54.8804C102.344 54.5835 102.747 54.4167 103.167 54.4167ZM107.378 69.205L101.631 63.4733L107.378 57.7258L113.11 63.4575L107.378 69.205Z" fill="#FDCB6E"/>
</svg>
