<svg width="64" height="64" viewBox="0 0 64 64" fill="none" xmlns="http://www.w3.org/2000/svg">
<circle cx="32" cy="32" r="32" fill="#253BAB"/>
<path d="M32.5 43.5751C39.1688 43.5751 44.575 38.1689 44.575 31.5001C44.575 24.8312 39.1688 19.425 32.5 19.425C25.8312 19.425 20.425 24.8312 20.425 31.5001C20.425 38.1689 25.8312 43.5751 32.5 43.5751Z" stroke="white" stroke-width="2" stroke-linecap="round" stroke-linejoin="round"/>
<path d="M32.5 26.325V31.5L35.0875 34.0875" stroke="white" stroke-width="2" stroke-linecap="round" stroke-linejoin="round"/>
<path d="M40.2798 40.7288L39.676 47.3355C39.5983 48.1957 39.2008 48.9954 38.562 49.5767C37.9232 50.158 37.0897 50.4785 36.226 50.475H28.7568C27.8931 50.4785 27.0595 50.158 26.4208 49.5767C25.782 48.9954 25.3845 48.1957 25.3068 47.3355L24.703 40.7288M24.7203 22.2713L25.324 15.6645C25.4015 14.8073 25.7965 14.01 26.4317 13.4292C27.0668 12.8483 27.8961 12.5258 28.7568 12.525H36.2605C37.1242 12.5215 37.9577 12.8421 38.5965 13.4234C39.2353 14.0046 39.6328 14.8044 39.7105 15.6645L40.3143 22.2713" stroke="white" stroke-width="2" stroke-linecap="round" stroke-linejoin="round"/>
</svg>
