<svg width="141" height="141" viewBox="0 0 141 141" fill="none" xmlns="http://www.w3.org/2000/svg">
<circle cx="70.5" cy="70.5" r="70.5" fill="#253BAB"/>
<path d="M53.9766 37.4531C44.0625 37.4531 37.4531 47.3672 37.4531 57.2812C37.4531 64.2541 40.7578 73.8047 44.0625 77.1094C47.3672 80.4141 50.6719 103.547 57.2812 103.547C72.2845 103.547 63.8906 80.4141 70.5 80.4141C77.1094 80.4141 68.7155 103.547 83.7188 103.547C90.3281 103.547 93.6328 80.4141 96.9375 77.1094C100.242 73.8047 103.547 64.2541 103.547 57.2812C103.547 47.3672 96.9375 37.4531 87.0234 37.4531C77.1094 37.4531 77.1094 40.7578 70.5 40.7578C63.8906 40.7578 63.8906 37.4531 53.9766 37.4531Z" fill="#FAFAFA"/>
<path d="M83.8783 22.7356L77.0274 26.5879L70.958 17.7798C70.9336 17.7444 70.9012 17.7151 70.8635 17.6943C70.8258 17.6735 70.7838 17.6618 70.7408 17.6601C70.6978 17.6584 70.655 17.6667 70.6157 17.6844C70.5765 17.7021 70.5419 17.7287 70.5148 17.7621L63.7651 26.0578L57.2401 21.6708C57.0491 21.5427 56.7884 21.694 56.8101 21.9255L58.6377 41.9789C58.6647 42.2519 58.8899 42.4708 59.1682 42.4819L80.3021 43.3267C80.577 43.3377 80.8223 43.141 80.8676 42.8675L84.29 23.0239C84.3267 22.7948 84.0824 22.6233 83.8783 22.7356ZM69.9323 37.9291C67.7987 37.8439 66.1329 36.0394 66.2182 33.9057C66.3035 31.7721 68.1079 30.1063 70.2416 30.1916C72.3753 30.2769 74.041 32.0814 73.9557 34.215C73.8704 36.3487 72.066 38.0144 69.9323 37.9291ZM70.1533 32.4009C69.2394 32.3643 68.4676 33.0768 68.4309 33.9942C68.3944 34.9081 69.1067 35.6834 70.0206 35.7199C70.9346 35.7564 71.7064 35.044 71.743 34.1266C71.7796 33.2126 71.0672 32.4374 70.1533 32.4009Z" fill="#FDCB6E"/>
</svg>
