<svg width="141" height="141" viewBox="0 0 141 141" fill="none" xmlns="http://www.w3.org/2000/svg">
<circle cx="70.5" cy="70.5" r="70.5" fill="#253BAB"/>
<path d="M53.9766 37.4531C44.0625 37.4531 37.4531 47.3672 37.4531 57.2812C37.4531 64.2541 40.7578 73.8047 44.0625 77.1094C47.3672 80.4141 50.6719 103.547 57.2812 103.547C72.2845 103.547 63.8906 80.4141 70.5 80.4141C77.1094 80.4141 68.7155 103.547 83.7188 103.547C90.3281 103.547 93.6328 80.4141 96.9375 77.1094C100.242 73.8047 103.547 64.2541 103.547 57.2812C103.547 47.3672 96.9375 37.4531 87.0234 37.4531C77.1094 37.4531 77.1094 40.7578 70.5 40.7578C63.8906 40.7578 63.8906 37.4531 53.9766 37.4531Z" fill="#FAFAFA"/>
<path d="M98.5125 50.565L96.0275 48.0975L98.5125 45.6125L100.98 48.0975L103.447 45.6125L100.98 43.145L103.447 40.6775L105.932 43.145L108.4 40.6775L103.447 35.725L91.075 48.0975L96.0275 53.05L98.5125 50.565ZM84.39 57.25L89.85 51.8075L86.14 48.0975L103.447 30.7725L107.175 34.5L109.625 32.015L107.175 29.53L109.625 27.0625L117.062 34.5L114.595 36.95L112.11 34.5L109.625 36.95L113.352 40.6775L96.0275 57.985L92.3175 54.275L84.39 62.22V57.25Z" fill="#FDCB6E"/>
</svg>
