<svg width="115" height="80" viewBox="0 0 115 80" fill="none" xmlns="http://www.w3.org/2000/svg">
<path d="M4.72807 14.1841C7.3393 16.7954 11.5729 16.7954 14.1842 14.1841C16.7954 11.5729 16.7954 7.33928 14.1842 4.72805C11.5729 2.11682 7.3393 2.11682 4.72807 4.72805C2.11684 7.33928 2.11684 11.5729 4.72807 14.1841Z" fill="#FDCB6E"/>
<path d="M36.272 14.1841C38.8832 16.7954 43.1168 16.7954 45.728 14.1841C48.3393 11.5729 48.3393 7.33928 45.728 4.72805C43.1168 2.11682 38.8832 2.11682 36.272 4.72805C33.6607 7.33928 33.6607 11.5729 36.272 14.1841Z" fill="#FDCB6E"/>
<path d="M68.272 14.1841C70.8832 16.7954 75.1168 16.7954 77.728 14.1841C80.3393 11.5729 80.3393 7.33928 77.728 4.72805C75.1168 2.11682 70.8832 2.11682 68.272 4.72805C65.6607 7.33928 65.6607 11.5729 68.272 14.1841Z" fill="#FDCB6E"/>
<path d="M100.272 14.1841C102.883 16.7954 107.117 16.7954 109.728 14.1841C112.339 11.5729 112.339 7.33928 109.728 4.72805C107.117 2.11682 102.883 2.11682 100.272 4.72805C97.6607 7.33928 97.6607 11.5729 100.272 14.1841Z" fill="#FDCB6E"/>
<path d="M4.72807 45.1841C7.3393 47.7954 11.5729 47.7954 14.1842 45.1841C16.7954 42.5729 16.7954 38.3393 14.1842 35.728C11.5729 33.1168 7.3393 33.1168 4.72807 35.728C2.11684 38.3393 2.11684 42.5729 4.72807 45.1841Z" fill="#FDCB6E"/>
<path d="M36.272 45.1841C38.8832 47.7954 43.1168 47.7954 45.728 45.1841C48.3393 42.5729 48.3393 38.3393 45.728 35.728C43.1168 33.1168 38.8832 33.1168 36.272 35.728C33.6607 38.3393 33.6607 42.5729 36.272 45.1841Z" fill="#FDCB6E"/>
<path d="M68.272 45.1841C70.8832 47.7954 75.1168 47.7954 77.728 45.1841C80.3393 42.5729 80.3393 38.3393 77.728 35.728C75.1168 33.1168 70.8832 33.1168 68.272 35.728C65.6607 38.3393 65.6607 42.5729 68.272 45.1841Z" fill="#FDCB6E"/>
<path d="M100.272 45.1841C102.883 47.7954 107.117 47.7954 109.728 45.1841C112.339 42.5729 112.339 38.3393 109.728 35.728C107.117 33.1168 102.883 33.1168 100.272 35.728C97.6607 38.3393 97.6607 42.5729 100.272 45.1841Z" fill="#FDCB6E"/>
<path d="M4.72807 75.1841C7.3393 77.7954 11.5729 77.7954 14.1842 75.1841C16.7954 72.5729 16.7954 68.3393 14.1842 65.728C11.5729 63.1168 7.3393 63.1168 4.72807 65.728C2.11684 68.3393 2.11684 72.5729 4.72807 75.1841Z" fill="#FDCB6E"/>
<path d="M36.272 75.1841C38.8832 77.7954 43.1168 77.7954 45.728 75.1841C48.3393 72.5729 48.3393 68.3393 45.728 65.728C43.1168 63.1168 38.8832 63.1168 36.272 65.728C33.6607 68.3393 33.6607 72.5729 36.272 75.1841Z" fill="#FDCB6E"/>
<path d="M68.272 75.1841C70.8832 77.7954 75.1168 77.7954 77.728 75.1841C80.3393 72.5729 80.3393 68.3393 77.728 65.728C75.1168 63.1168 70.8832 63.1168 68.272 65.728C65.6607 68.3393 65.6607 72.5729 68.272 75.1841Z" fill="#FDCB6E"/>
<path d="M100.272 75.1841C102.883 77.7954 107.117 77.7954 109.728 75.1841C112.339 72.5729 112.339 68.3393 109.728 65.728C107.117 63.1168 102.883 63.1168 100.272 65.728C97.6607 68.3393 97.6607 72.5729 100.272 75.1841Z" fill="#FDCB6E"/>
</svg>
