<svg width="141" height="141" viewBox="0 0 141 141" fill="none" xmlns="http://www.w3.org/2000/svg">
<circle cx="70.5" cy="70.5" r="70.5" fill="#253BAB"/>
<path d="M53.9766 37.4531C44.0625 37.4531 37.4531 47.3672 37.4531 57.2812C37.4531 64.2541 40.7578 73.8047 44.0625 77.1094C47.3672 80.4141 50.6719 103.547 57.2812 103.547C72.2845 103.547 63.8906 80.4141 70.5 80.4141C77.1094 80.4141 68.7155 103.547 83.7188 103.547C90.3281 103.547 93.6328 80.4141 96.9375 77.1094C100.242 73.8047 103.547 64.2541 103.547 57.2812C103.547 47.3672 96.9375 37.4531 87.0234 37.4531C77.1094 37.4531 77.1094 40.7578 70.5 40.7578C63.8906 40.7578 63.8906 37.4531 53.9766 37.4531Z" fill="#FAFAFA"/>
<path d="M96.5 43.6875C89.9768 43.6875 84.6875 48.9768 84.6875 55.5C84.6875 62.0232 89.9768 67.3125 96.5 67.3125C103.023 67.3125 108.312 62.0232 108.312 55.5C108.312 48.9768 103.023 43.6875 96.5 43.6875ZM101.154 59.1308L100.4 60.1591C100.383 60.1815 100.363 60.2004 100.339 60.2148C100.315 60.2292 100.289 60.2387 100.261 60.2429C100.234 60.247 100.206 60.2457 100.179 60.2391C100.152 60.2324 100.127 60.2204 100.104 60.2039L95.7433 57.024C95.7161 57.0045 95.694 56.9788 95.6789 56.9489C95.6637 56.9191 95.656 56.8861 95.6562 56.8526V49.5938C95.6562 49.4777 95.7512 49.3828 95.8672 49.3828H97.1354C97.2515 49.3828 97.3464 49.4777 97.3464 49.5938V56.1196L101.106 58.8381C101.201 58.904 101.222 59.0358 101.154 59.1308Z" fill="#FDCB6E"/>
</svg>
