<svg width="175" height="243" viewBox="0 0 175 243" fill="none" xmlns="http://www.w3.org/2000/svg">
<path d="M5.27705 14.3467C7.88828 16.958 12.1219 16.958 14.7331 14.3467C17.3444 11.7355 17.3444 7.50187 14.7331 4.89065C12.1219 2.27942 7.88828 2.27942 5.27705 4.89065C2.66582 7.50187 2.66582 11.7355 5.27705 14.3467Z" fill="#FDCB6E"/>
<path d="M36.272 14.3467C38.8832 16.958 43.1168 16.958 45.728 14.3467C48.3393 11.7355 48.3393 7.50187 45.728 4.89065C43.1168 2.27942 38.8832 2.27942 36.272 4.89065C33.6607 7.50187 33.6607 11.7355 36.272 14.3467Z" fill="#FDCB6E"/>
<path d="M67.272 14.3467C69.8832 16.958 74.1168 16.958 76.728 14.3467C79.3393 11.7355 79.3393 7.50187 76.728 4.89065C74.1168 2.27942 69.8832 2.27942 67.272 4.89065C64.6607 7.50187 64.6607 11.7355 67.272 14.3467Z" fill="#FDCB6E"/>
<path d="M98.272 14.3467C100.883 16.958 105.117 16.958 107.728 14.3467C110.339 11.7355 110.339 7.50187 107.728 4.89065C105.117 2.27942 100.883 2.27942 98.272 4.89065C95.6607 7.50187 95.6607 11.7355 98.272 14.3467Z" fill="#FDCB6E"/>
<path d="M129.272 14.3467C131.883 16.958 136.117 16.958 138.728 14.3467C141.339 11.7355 141.339 7.50187 138.728 4.89065C136.117 2.27942 131.883 2.27942 129.272 4.89065C126.661 7.50187 126.661 11.7355 129.272 14.3467Z" fill="#FDCB6E"/>
<path d="M160.272 14.3467C162.883 16.958 167.117 16.958 169.728 14.3467C172.339 11.7355 172.339 7.50187 169.728 4.89065C167.117 2.27942 162.883 2.27942 160.272 4.89065C157.661 7.50187 157.661 11.7355 160.272 14.3467Z" fill="#FDCB6E"/>
<path d="M5.27705 46.1841C7.88828 48.7954 12.1219 48.7954 14.7331 46.1841C17.3444 43.5729 17.3444 39.3393 14.7331 36.728C12.1219 34.1168 7.88828 34.1168 5.27705 36.728C2.66582 39.3393 2.66582 43.5729 5.27705 46.1841Z" fill="#FDCB6E"/>
<path d="M5.27705 78.1841C7.88828 80.7954 12.1219 80.7954 14.7331 78.1841C17.3444 75.5729 17.3444 71.3393 14.7331 68.728C12.1219 66.1168 7.88828 66.1168 5.27705 68.728C2.66582 71.3393 2.66582 75.5729 5.27705 78.1841Z" fill="#FDCB6E"/>
<path d="M5.27705 110.184C7.88828 112.795 12.1219 112.795 14.7331 110.184C17.3444 107.573 17.3444 103.339 14.7331 100.728C12.1219 98.1168 7.88828 98.1168 5.27705 100.728C2.66582 103.339 2.66582 107.573 5.27705 110.184Z" fill="#FDCB6E"/>
<path d="M5.27705 142.184C7.88828 144.795 12.1219 144.795 14.7331 142.184C17.3444 139.573 17.3444 135.339 14.7331 132.728C12.1219 130.117 7.88828 130.117 5.27705 132.728C2.66582 135.339 2.66582 139.573 5.27705 142.184Z" fill="#FDCB6E"/>
<path d="M5.27705 174.184C7.88828 176.795 12.1219 176.795 14.7331 174.184C17.3444 171.573 17.3444 167.339 14.7331 164.728C12.1219 162.117 7.88828 162.117 5.27705 164.728C2.66582 167.339 2.66582 171.573 5.27705 174.184Z" fill="#FDCB6E"/>
<path d="M5.27705 206.184C7.88828 208.795 12.1219 208.795 14.7331 206.184C17.3444 203.573 17.3444 199.339 14.7331 196.728C12.1219 194.117 7.88828 194.117 5.27705 196.728C2.66582 199.339 2.66582 203.573 5.27705 206.184Z" fill="#FDCB6E"/>
<path d="M5.27705 238.184C7.88828 240.795 12.1219 240.795 14.7331 238.184C17.3444 235.573 17.3444 231.339 14.7331 228.728C12.1219 226.117 7.88828 226.117 5.27705 228.728C2.66582 231.339 2.66582 235.573 5.27705 238.184Z" fill="#FDCB6E"/>
</svg>
