<svg width="64" height="64" viewBox="0 0 64 64" fill="none" xmlns="http://www.w3.org/2000/svg">
<circle cx="32" cy="32" r="32" fill="#253BAB"/>
<path d="M46.25 28.3461C46.25 39.3846 32 48.8461 32 48.8461C32 48.8461 17.75 39.3846 17.75 28.3461C17.75 24.5821 19.2513 20.9722 21.9237 18.3107C24.5961 15.6491 28.2207 14.1538 32 14.1538C35.7793 14.1538 39.4039 15.6491 42.0763 18.3107C44.7487 20.9722 46.25 24.5821 46.25 28.3461Z" stroke="white" stroke-width="2" stroke-linecap="round" stroke-linejoin="round"/>
<path d="M32 33.0769C34.6234 33.0769 36.75 30.9589 36.75 28.3462C36.75 25.7334 34.6234 23.6154 32 23.6154C29.3766 23.6154 27.25 25.7334 27.25 28.3462C27.25 30.9589 29.3766 33.0769 32 33.0769Z" stroke="white" stroke-width="2" stroke-linecap="round" stroke-linejoin="round"/>
</svg>
