<svg width="110" height="36" viewBox="0 0 110 36" fill="none" xmlns="http://www.w3.org/2000/svg">
<path d="M11.852 6.912C9.332 6.912 7.208 7.812 5.84 9.396V7.344H0.8V34.2H6.2V25.452C7.532 26.676 9.512 27.432 11.816 27.432C17.504 27.432 21.824 22.896 21.824 17.172C21.824 11.412 17.432 6.912 11.852 6.912ZM11.168 22.572C8.252 22.572 6.2 20.34 6.2 17.172C6.2 14.004 8.252 11.772 11.168 11.772C14.12 11.772 16.244 14.04 16.244 17.172C16.244 20.304 14.12 22.572 11.168 22.572ZM41.9667 16.596C41.9667 11.16 37.7187 6.912 32.2107 6.912C26.5947 6.912 22.2747 11.268 22.2747 17.136C22.2747 22.824 26.3427 27.432 32.5707 27.432C36.6027 27.432 39.8427 25.524 41.0307 22.644L36.7107 20.592C35.9547 21.924 34.5507 22.752 32.6427 22.752C29.9787 22.752 28.2147 21.168 27.8907 18.684H41.7147C41.8947 18.144 41.9667 17.388 41.9667 16.596ZM27.9987 14.724C28.5387 12.456 30.0867 11.232 32.2107 11.232C34.4427 11.232 36.0267 12.636 36.2427 14.724H27.9987ZM51.484 6.912C47.308 6.912 43.924 9 42.772 12.24L47.416 14.472C47.992 12.708 49.576 11.592 51.484 11.592C53.284 11.592 54.508 12.564 54.508 14.04V14.688L48.352 15.984C44.356 16.812 42.052 18.72 42.052 21.636C42.052 24.912 44.86 27.432 49.324 27.432C51.592 27.432 53.392 26.748 54.868 25.2V27H59.908V14.04C59.908 9.828 56.488 6.912 51.484 6.912ZM50.152 23.472C48.604 23.472 47.632 22.752 47.632 21.564C47.632 20.664 48.208 19.98 49.324 19.728L54.508 18.576V19.512C54.508 21.708 52.6 23.472 50.152 23.472ZM72.1524 7.128C69.7404 7.128 67.8324 7.848 66.8244 10.296V7.344H61.7844V27H67.1844V16.416C67.1844 13.5 68.9844 11.808 71.6124 11.808H74.2044V7.128H72.1524ZM75.3742 27H80.7742V0.179998H75.3742V27ZM96.6222 7.344L91.9782 20.088L87.3342 7.344H81.5742L89.2782 27L88.7742 28.116C88.3062 29.16 87.6942 30.348 85.5342 30.348C84.7422 30.348 83.7702 30.204 83.0862 29.988V34.416C83.9142 34.848 85.0302 35.028 86.1822 35.028C91.4742 35.028 93.1302 31.032 93.8502 29.16L102.382 7.344H96.6222Z" fill="#102B4E"/>
<path d="M106.743 27.3324C108.38 27.3324 109.799 25.9645 109.811 24.2642C109.799 22.5895 108.38 21.2216 106.743 21.2216C105.056 21.2216 103.662 22.5895 103.675 24.2642C103.662 25.9645 105.056 27.3324 106.743 27.3324Z" fill="#253BAB"/>
</svg>
