<svg width="64" height="64" viewBox="0 0 64 64" fill="none" xmlns="http://www.w3.org/2000/svg">
<circle cx="32" cy="32" r="32" fill="#253BAB"/>
<path d="M35.0437 24.9905C36.3088 25.2373 37.4715 25.856 38.3829 26.7675C39.2943 27.6789 39.913 28.8416 40.1599 30.1067M35.0437 19.8095C37.6721 20.1015 40.1231 21.2786 41.9942 23.1474C43.8654 25.0162 45.0455 27.4657 45.3408 30.0937M44.0456 40.4297V44.3154C44.047 44.6762 43.9732 45.0332 43.8286 45.3637C43.6841 45.6943 43.4722 45.991 43.2064 46.2348C42.9406 46.4787 42.6267 46.6643 42.285 46.7799C41.9433 46.8955 41.5812 46.9384 41.222 46.9059C37.2363 46.4728 33.4078 45.1109 30.0441 42.9295C26.9145 40.9409 24.2613 38.2876 22.2726 35.1581C20.0836 31.7791 18.7214 27.932 18.2962 23.9284C18.2639 23.5702 18.3064 23.2092 18.4212 22.8684C18.536 22.5276 18.7205 22.2144 18.963 21.9488C19.2055 21.6832 19.5006 21.471 19.8295 21.3256C20.1585 21.1803 20.5141 21.1051 20.8738 21.1048H24.7595C25.3881 21.0986 25.9975 21.3212 26.4741 21.7311C26.9507 22.141 27.262 22.7102 27.35 23.3326C27.514 24.5761 27.8181 25.7971 28.2566 26.9722C28.4309 27.4358 28.4686 27.9396 28.3653 28.424C28.262 28.9084 28.022 29.353 27.6738 29.7052L26.0288 31.3501C27.8727 34.5928 30.5576 37.2777 33.8002 39.1215L35.4452 37.4766C35.7974 37.1283 36.242 36.8884 36.7263 36.7851C37.2107 36.6818 37.7146 36.7195 38.1782 36.8937C39.3533 37.3322 40.5743 37.6364 41.8178 37.8004C42.447 37.8892 43.0216 38.2061 43.4323 38.6909C43.8431 39.1757 44.0613 39.7945 44.0456 40.4297Z" stroke="white" stroke-width="2" stroke-linecap="round" stroke-linejoin="round"/>
</svg>
