<svg width="141" height="141" viewBox="0 0 141 141" fill="none" xmlns="http://www.w3.org/2000/svg">
<circle cx="70.5" cy="70.5" r="70.5" fill="#253BAB"/>
<path d="M53.9766 37.4531C44.0625 37.4531 37.4531 47.3672 37.4531 57.2812C37.4531 64.2541 40.7578 73.8047 44.0625 77.1094C47.3672 80.4141 50.6719 103.547 57.2812 103.547C72.2845 103.547 63.8906 80.4141 70.5 80.4141C77.1094 80.4141 68.7155 103.547 83.7188 103.547C90.3281 103.547 93.6328 80.4141 96.9375 77.1094C100.242 73.8047 103.547 64.2541 103.547 57.2812C103.547 47.3672 96.9375 37.4531 87.0234 37.4531C77.1094 37.4531 77.1094 40.7578 70.5 40.7578C63.8906 40.7578 63.8906 37.4531 53.9766 37.4531Z" fill="#FAFAFA"/>
<path d="M86.0744 72.0659C86.0744 72.0406 80.9818 72.0111 70.7965 72.0027V64.8503H86.0365C84.44 58.4266 78.6692 53.8942 71.9886 53.8942C69.4356 53.8935 66.9273 54.564 64.7153 55.8386C62.5032 57.1132 60.6652 58.947 59.3855 61.1561L59.1791 61.5142L35.2998 61.51C34.7775 61.51 34.3479 61.9396 34.3479 62.4619L34.3479 74.3742C34.3479 74.8965 34.7775 75.3262 35.2998 75.3262L59.1665 75.3262L59.3729 75.6842C61.9592 80.1492 66.7233 82.9588 71.9802 82.9588C78.665 82.963 84.4358 78.4306 86.0744 72.0659Z" fill="#FDCB6E"/>
<path d="M54.671 64.6341C54.671 64.6594 59.7636 64.6888 69.9488 64.6973V71.8497H54.7089C56.3053 78.2734 62.0761 82.8058 68.7568 82.8058C71.3097 82.8065 73.818 82.1359 76.0301 80.8613C78.2421 79.5867 80.0802 77.7529 81.3598 75.5438L81.5662 75.1858L105.446 75.19C105.968 75.19 106.397 74.7603 106.397 74.238L106.397 62.3258C106.397 61.8034 105.968 61.3738 105.446 61.3738L81.5789 61.3738L81.3725 61.0158C78.7861 56.5508 74.0221 53.7412 68.7652 53.7412C62.0803 53.737 56.3095 58.2694 54.671 64.6341Z" fill="#FDCB6E"/>
</svg>
