<svg width="81" height="116" viewBox="0 0 81 116" fill="none" xmlns="http://www.w3.org/2000/svg">
<path d="M66 5.45609C63.3888 8.06732 63.3888 12.301 66 14.9122C68.6112 17.5234 72.8449 17.5234 75.4561 14.9122C78.0673 12.301 78.0673 8.06732 75.4561 5.45609C72.8449 2.84487 68.6112 2.84487 66 5.45609Z" fill="#FDCB6E"/>
<path d="M66 37C63.3888 39.6112 63.3888 43.8448 66 46.4561C68.6112 49.0673 72.8449 49.0673 75.4561 46.4561C78.0673 43.8448 78.0673 39.6112 75.4561 37C72.8449 34.3887 68.6112 34.3887 66 37Z" fill="#FDCB6E"/>
<path d="M66 69C63.3888 71.6112 63.3888 75.8448 66 78.4561C68.6112 81.0673 72.8449 81.0673 75.4561 78.4561C78.0673 75.8448 78.0673 71.6112 75.4561 69C72.8449 66.3887 68.6112 66.3887 66 69Z" fill="#FDCB6E"/>
<path d="M66 101C63.3888 103.611 63.3888 107.845 66 110.456C68.6112 113.067 72.8449 113.067 75.4561 110.456C78.0673 107.845 78.0673 103.611 75.4561 101C72.8449 98.3887 68.6112 98.3887 66 101Z" fill="#FDCB6E"/>
<path d="M35 5.45609C32.3888 8.06732 32.3888 12.301 35 14.9122C37.6112 17.5234 41.8449 17.5234 44.4561 14.9122C47.0673 12.301 47.0673 8.06732 44.4561 5.45609C41.8449 2.84487 37.6112 2.84487 35 5.45609Z" fill="#FDCB6E"/>
<path d="M35 37C32.3888 39.6112 32.3888 43.8448 35 46.4561C37.6112 49.0673 41.8449 49.0673 44.4561 46.4561C47.0673 43.8448 47.0673 39.6112 44.4561 37C41.8449 34.3887 37.6112 34.3887 35 37Z" fill="#FDCB6E"/>
<path d="M35 69C32.3888 71.6112 32.3888 75.8448 35 78.4561C37.6112 81.0673 41.8449 81.0673 44.4561 78.4561C47.0673 75.8448 47.0673 71.6112 44.4561 69C41.8449 66.3887 37.6112 66.3887 35 69Z" fill="#FDCB6E"/>
<path d="M35 101C32.3888 103.611 32.3888 107.845 35 110.456C37.6112 113.067 41.8449 113.067 44.4561 110.456C47.0673 107.845 47.0673 103.611 44.4561 101C41.8449 98.3887 37.6112 98.3887 35 101Z" fill="#FDCB6E"/>
<path d="M5 5.45609C2.38877 8.06732 2.38877 12.301 5 14.9122C7.61123 17.5234 11.8449 17.5234 14.4561 14.9122C17.0673 12.301 17.0673 8.06732 14.4561 5.45609C11.8449 2.84487 7.61123 2.84487 5 5.45609Z" fill="#FDCB6E"/>
<path d="M5 37C2.38877 39.6112 2.38877 43.8448 5 46.4561C7.61123 49.0673 11.8449 49.0673 14.4561 46.4561C17.0673 43.8448 17.0673 39.6112 14.4561 37C11.8449 34.3887 7.61123 34.3887 5 37Z" fill="#FDCB6E"/>
<path d="M5 69C2.38877 71.6112 2.38877 75.8448 5 78.4561C7.61123 81.0673 11.8449 81.0673 14.4561 78.4561C17.0673 75.8448 17.0673 71.6112 14.4561 69C11.8449 66.3887 7.61123 66.3887 5 69Z" fill="#FDCB6E"/>
<path d="M5 101C2.38877 103.611 2.38877 107.845 5 110.456C7.61123 113.067 11.8449 113.067 14.4561 110.456C17.0673 107.845 17.0673 103.611 14.4561 101C11.8449 98.3887 7.61123 98.3887 5 101Z" fill="#FDCB6E"/>
</svg>
