<svg width="141" height="141" viewBox="0 0 141 141" fill="none" xmlns="http://www.w3.org/2000/svg">
<circle cx="70.5" cy="70.5" r="70.5" fill="#253BAB"/>
<path d="M53.9766 37.4531C44.0625 37.4531 37.4531 47.3672 37.4531 57.2812C37.4531 64.2541 40.7578 73.8047 44.0625 77.1094C47.3672 80.4141 50.6719 103.547 57.2812 103.547C72.2845 103.547 63.8906 80.4141 70.5 80.4141C77.1094 80.4141 68.7155 103.547 83.7188 103.547C90.3281 103.547 93.6328 80.4141 96.9375 77.1094C100.242 73.8047 103.547 64.2541 103.547 57.2812C103.547 47.3672 96.9375 37.4531 87.0234 37.4531C77.1094 37.4531 77.1094 40.7578 70.5 40.7578C63.8906 40.7578 63.8906 37.4531 53.9766 37.4531Z" fill="#FAFAFA"/>
<path d="M84.4619 57.6C87.8144 55.2291 89.89 52.4982 91.0262 50.67C92.1625 52.4982 94.2381 55.2263 97.5906 57.6C94.2409 59.971 92.1625 62.6991 91.0262 64.5272C89.8928 62.7019 87.8144 59.971 84.4619 57.6Z" fill="#FDCB6E"/>
<path d="M106.056 68.0174C105.353 67.1287 104.217 65.9474 102.535 64.859C104.217 63.7706 105.35 62.5893 106.056 61.7006C106.759 62.5893 107.896 63.7706 109.575 64.859C107.896 65.9474 106.762 67.1287 106.056 68.0174Z" fill="#FDCB6E"/>
<path d="M96.9184 76.05C96.1723 74.9552 95.2659 73.9787 94.2297 73.1531C95.4616 72.1715 96.3334 71.114 96.9184 70.2534C97.5034 71.1112 98.3753 72.1715 99.6072 73.1531C98.5709 73.9787 97.6646 74.9552 96.9184 76.05Z" fill="#FDCB6E"/>
<path d="M92.1344 67.5196C92.1569 67.4662 94.4097 62.2153 100.403 58.6293L102.124 57.6L100.403 56.5678C94.4097 52.9846 92.1569 47.7337 92.1372 47.6831L91.0347 45.0225L89.9209 47.6803C89.8984 47.7337 87.6456 52.9846 81.6522 56.5706L79.9281 57.6L81.6494 58.6293C87.6428 62.2153 89.8956 67.4662 89.9181 67.5196L91.0206 70.1747L92.1344 67.5196ZM84.4619 57.6C87.8144 55.229 89.89 52.4981 91.0263 50.67C92.1625 52.4981 94.2381 55.2262 97.5906 57.6C94.2409 59.9709 92.1625 62.699 91.0263 64.5271C89.8928 62.7018 87.8144 59.9709 84.4619 57.6Z" fill="#FDCB6E"/>
<path d="M112.165 63.9169C108.419 62.0663 107.007 59.3803 106.996 59.3578L106.065 57.5128L105.12 59.355C105.106 59.3803 103.694 62.0663 99.9475 63.9197L98.0406 64.8619L99.9475 65.8041C103.685 67.6519 105.1 70.3266 105.12 70.3688L106.048 72.2109L106.993 70.3688C107.007 70.3434 108.419 67.6575 112.165 65.8041L114.072 64.8619L112.165 63.9169ZM106.056 68.0175C105.353 67.1288 104.217 65.9475 102.535 64.8591C104.217 63.7706 105.35 62.5894 106.056 61.7006C106.759 62.5894 107.896 63.7706 109.575 64.8591C107.896 65.9475 106.762 67.1288 106.056 68.0175Z" fill="#FDCB6E"/>
<path d="M97.8944 67.7306L96.9297 65.3287L95.9481 67.7278C95.9369 67.7531 94.8147 70.4306 91.8588 72.2587L90.4131 73.1531L91.8588 74.0447C94.8006 75.8644 95.9256 78.5222 95.9481 78.5756L96.9128 80.9747L97.8944 78.5756C97.9056 78.5475 99.025 75.8728 101.984 74.0447L103.429 73.1531L101.984 72.2587C99.025 70.4306 97.9028 67.7559 97.8944 67.7306ZM96.9185 76.05C96.1723 74.9552 95.266 73.9787 94.2297 73.1531C95.4616 72.1715 96.3335 71.114 96.9185 70.2534C97.5035 71.1112 98.3753 72.1715 99.6072 73.1531C98.571 73.9787 97.6646 74.9552 96.9185 76.05Z" fill="#FDCB6E"/>
</svg>
